# This file uses centimeters as units for non-parametric coordinates.

mtllib Environment_ground.mtl
g default
v -5.983275 3.091191 4.067769
v -7.453227 3.740833 4.361438
v -5.459134 3.084117 10.049187
v 4.436814 3.055384 -5.311215
v -1.277476 3.103340 -1.042119
v 5.175214 2.650174 -1.154757
v -7.953161 4.608155 4.767199
v -6.765855 3.723530 11.230985
v -0.184906 2.664623 1.306399
v -4.196838 2.690366 4.262226
v -2.902118 2.666771 8.390175
v 4.435748 3.740125 -6.870335
v 11.951148 3.734380 -4.999858
v 4.647313 4.613863 -7.436853
v 11.007041 3.075781 -3.656355
v 1.618167 2.578820 6.154022
v -8.381445 5.036946 4.830190
v -7.100640 4.596706 11.907127
v 6.234214 2.610898 4.445027
v -7.484739 5.036946 12.171527
v 12.958527 4.606663 -4.852551
v 4.652558 5.036946 -7.788901
v 9.814668 2.679170 -1.317766
v -1.190400 2.678644 12.028552
v -2.420958 3.064443 14.169146
v -3.447745 3.712831 15.774902
v 13.319936 5.036946 -5.047556
v 2.745840 2.668600 10.919983
v 13.676527 3.103311 2.676236
v 10.852484 2.671543 3.409390
v 15.107196 3.747933 2.366291
v -3.786479 4.596961 16.286007
v 7.148659 2.668768 9.414476
v 2.823855 3.123371 13.471885
v -3.925007 5.036946 16.651924
v 10.774915 2.708015 7.908419
v 2.665971 3.770515 14.792446
v 2.544930 4.633196 15.285430
v 15.630778 4.611339 2.394490
v 7.991510 3.126344 11.709652
v 12.462978 3.112648 8.621288
v 16.076140 5.036946 2.371426
v 8.742593 3.778429 12.708385
v 13.820844 3.748006 9.058445
v 14.346151 4.613197 9.152824
v 9.175764 4.637205 13.014198
v 9.375241 5.036946 13.306458
v 14.699652 5.036946 9.335628
v 2.609258 5.036946 15.617664
v -2.567098 5.036946 -2.306711
v -1.991124 3.774385 -1.873498
v -2.274620 4.639158 -2.106428
v -19.911178 5.036943 5.206078
v -20.000001 5.036943 19.000000
v -19.992898 5.036944 30.000008
v 30.000001 5.036943 2.000000
v 30.000001 5.036944 -19.999996
v 8.000000 5.036943 30.000000
v 30.000001 5.036943 30.000000
v 30.000001 5.036943 17.000000
v -19.992898 5.036944 -19.999983
v 4.000000 5.036945 -20.000000
v -19.911178 2.779020 5.206078
v -20.000001 2.779018 19.000000
v -19.992898 -0.000004 30.000008
v 30.000001 2.010757 2.000000
v 30.000001 -0.000004 -19.999996
v 8.000000 -0.000005 30.000000
v 30.000001 -0.000005 30.000000
v 30.000001 2.010757 17.000000
v -19.992898 -0.000003 -19.999983
v 4.000000 -0.000002 -20.000000
vt 0.317841 0.403399
vt 0.310248 0.510119
vt 0.293444 0.508180
vt 0.305163 0.390515
vt 0.382738 0.618465
vt 0.393172 0.607974
vt 0.283745 0.508493
vt 0.296544 0.385464
vt 0.368944 0.332774
vt 0.360700 0.318147
vt 0.376404 0.623755
vt 0.496488 0.680988
vt 0.497997 0.697907
vt 0.356994 0.309495
vt 0.099831 0.280596
vt 0.099831 0.502909
vt 0.036112 0.502909
vt 0.036112 0.280596
vt 0.099831 0.902107
vt 0.036112 0.902107
vt 0.036112 0.096192
vt 0.099831 0.096192
vt 0.905505 0.902107
vt 0.905505 0.541835
vt 0.973620 0.541835
vt 0.973620 0.902107
vt 0.905505 0.299623
vt 0.973620 0.299623
vt 0.973620 0.096192
vt 0.905505 0.096192
vt 0.340505 0.421535
vt 0.335126 0.513118
vt 0.381277 0.445919
vt 0.362920 0.509622
vt 0.406172 0.592373
vt 0.386334 0.357978
vt 0.451383 0.478483
vt 0.423583 0.554661
vt 0.406588 0.389887
vt 0.496239 0.654421
vt 0.465908 0.341397
vt 0.468548 0.364156
vt 0.522362 0.503234
vt 0.506227 0.589720
vt 0.468048 0.404352
vt 0.595703 0.626247
vt 0.611308 0.648083
vt 0.563081 0.372419
vt 0.550022 0.390188
vt 0.577374 0.590656
vt 0.593877 0.518875
vt 0.536420 0.426414
vt 0.662616 0.535847
vt 0.638230 0.530487
vt 0.618647 0.438774
vt 0.641449 0.430972
vt 0.592086 0.449869
vt 0.631317 0.653597
vt 0.678094 0.536345
vt 0.656306 0.425251
vt 0.687641 0.537059
vt 0.638958 0.659142
vt 0.664316 0.420870
vt 0.497612 0.706741
vt 0.573699 0.360717
vt 0.578233 0.353767
vt 0.492407 0.902107
vt 0.465376 0.325846
vt 0.466721 0.317877
vt 0.546924 0.096192
vt 0.990265 0.990385
vt 0.956403 0.990385
vt 0.950247 0.913427
vt 0.990265 0.913427
vt 0.913318 0.990385
vt 0.913318 0.913427
vt 0.099831 0.009825
vt 0.546924 0.009825
vt 0.905505 0.009825
vt 0.492407 0.982278
vt 0.099831 0.982278
vt 0.905505 0.982278
vn 0.404810 0.913675 -0.036430
vn 0.404810 0.913675 -0.036430
vn 0.404810 0.913675 -0.036430
vn 0.404810 0.913675 -0.036430
vn 0.071528 0.991520 0.108502
vn 0.071528 0.991520 0.108502
vn 0.071528 0.991520 0.108502
vn 0.071528 0.991520 0.108502
vn 0.873278 0.477870 -0.095008
vn 0.873278 0.477870 -0.095008
vn 0.873278 0.477870 -0.095008
vn 0.873278 0.477870 -0.095008
vn 0.175707 0.984026 -0.028628
vn 0.175707 0.984026 -0.028628
vn 0.175707 0.984026 -0.028628
vn 0.175707 0.984026 -0.028628
vn -0.249507 0.387286 0.887556
vn -0.249507 0.387286 0.887556
vn -0.249507 0.387286 0.887556
vn -0.249507 0.387286 0.887556
vn -0.098887 0.914933 0.391305
vn -0.098887 0.914933 0.391305
vn -0.098887 0.914933 0.391305
vn -0.098887 0.914933 0.391305
vn 0.017139 0.999833 0.006271
vn 0.017139 0.999833 0.006271
vn 0.017139 0.999834 0.006271
vn 0.017139 0.999833 0.006271
vn 0.711592 0.697383 -0.085404
vn 0.711592 0.697383 -0.085404
vn 0.711592 0.697383 -0.085404
vn 0.711592 0.697383 -0.085404
vn -0.020488 0.992431 0.121085
vn -0.020488 0.992431 0.121085
vn -0.020488 0.992431 0.121085
vn -0.020488 0.992431 0.121085
vn 0.002905 0.999933 0.011176
vn 0.002905 0.999933 0.011176
vn 0.002905 0.999933 0.011176
vn 0.002905 0.999933 0.011176
vn -0.240330 0.594945 0.766996
vn -0.240330 0.594945 0.766996
vn -0.240330 0.594945 0.766996
vn -0.240330 0.594945 0.766996
vn 0.130448 0.988313 -0.078871
vn 0.130448 0.988313 -0.078871
vn 0.130448 0.988313 -0.078871
vn 0.130448 0.988313 -0.078871
vn 0.278337 0.939236 -0.200910
vn 0.278337 0.939236 -0.200910
vn 0.278337 0.939236 -0.200910
vn 0.278337 0.939236 -0.200910
vn -0.008861 0.999941 0.006341
vn -0.008861 0.999941 0.006341
vn -0.008861 0.999941 0.006341
vn -0.008861 0.999941 0.006341
vn 0.654600 0.579152 -0.485883
vn 0.654600 0.579152 -0.485883
vn 0.654600 0.579152 -0.485883
vn 0.654600 0.579152 -0.485883
vn 0.006001 0.999882 -0.014122
vn 0.006001 0.999882 -0.014122
vn 0.006001 0.999882 -0.014122
vn 0.006001 0.999882 -0.014122
vn -0.162819 0.985242 0.052805
vn -0.162819 0.985242 0.052805
vn -0.162819 0.985242 0.052805
vn -0.162819 0.985242 0.052805
vn -0.386026 0.908252 0.161438
vn -0.386026 0.908252 0.161438
vn -0.386026 0.908252 0.161438
vn -0.386026 0.908252 0.161438
vn -0.008355 0.999875 -0.013412
vn -0.008355 0.999875 -0.013412
vn -0.008355 0.999875 -0.013412
vn -0.008355 0.999875 -0.013412
vn -0.731878 0.616114 0.291132
vn -0.731878 0.616114 0.291132
vn -0.731878 0.616114 0.291132
vn -0.731878 0.616114 0.291132
vn -0.041834 0.981637 -0.186116
vn -0.041834 0.981637 -0.186116
vn -0.041834 0.981637 -0.186116
vn -0.041834 0.981637 -0.186116
vn 0.584892 0.672261 -0.453836
vn 0.584892 0.672261 -0.453836
vn 0.584892 0.672261 -0.453836
vn 0.584892 0.672261 -0.453836
vn -0.014783 0.999853 -0.008656
vn -0.014783 0.999853 -0.008656
vn -0.014783 0.999853 -0.008656
vn -0.014783 0.999853 -0.008656
vn -0.072566 0.900781 -0.428168
vn -0.072566 0.900781 -0.428168
vn -0.072566 0.900781 -0.428168
vn -0.072566 0.900781 -0.428168
vn -0.123523 0.626154 -0.769853
vn -0.123523 0.626154 -0.769853
vn -0.123523 0.626154 -0.769853
vn -0.123523 0.626154 -0.769853
vn -0.142751 0.464736 -0.873867
vn -0.142751 0.464736 -0.873867
vn -0.142751 0.464736 -0.873867
vn -0.142751 0.464736 -0.873867
vn -0.059630 0.982992 -0.173696
vn -0.059630 0.982992 -0.173696
vn -0.059630 0.982992 -0.173696
vn -0.059630 0.982992 -0.173696
vn -0.182314 0.982874 -0.026849
vn -0.182314 0.982874 -0.026849
vn -0.182314 0.982874 -0.026849
vn -0.182314 0.982874 -0.026849
vn -0.109535 0.976114 -0.187628
vn -0.109535 0.976114 -0.187628
vn -0.109535 0.976114 -0.187628
vn -0.109535 0.976114 -0.187628
vn -0.672401 0.697170 0.248659
vn -0.672401 0.697170 0.248659
vn -0.672401 0.697170 0.248659
vn -0.672401 0.697170 0.248659
vn -0.155533 0.878251 -0.452201
vn -0.155533 0.878251 -0.452201
vn -0.155533 0.878251 -0.452201
vn -0.155533 0.878251 -0.452201
vn -0.412647 0.907165 -0.082306
vn -0.412647 0.907165 -0.082306
vn -0.412647 0.907165 -0.082306
vn -0.412647 0.907165 -0.082306
vn -0.290627 0.445605 -0.846742
vn -0.290627 0.445605 -0.846742
vn -0.290627 0.445605 -0.846742
vn -0.290627 0.445605 -0.846743
vn -0.838768 0.520328 -0.160400
vn -0.838768 0.520328 -0.160400
vn -0.838768 0.520328 -0.160400
vn -0.838768 0.520328 -0.160400
vn -0.271339 0.879792 -0.390310
vn -0.271339 0.879792 -0.390310
vn -0.271339 0.879792 -0.390310
vn -0.271339 0.879792 -0.390310
vn -0.523914 0.457993 -0.718162
vn -0.523914 0.457993 -0.718162
vn -0.523914 0.457993 -0.718162
vn -0.523914 0.457993 -0.718162
vn -0.247785 0.643940 -0.723840
vn -0.247785 0.643940 -0.723840
vn -0.247785 0.643940 -0.723840
vn -0.247785 0.643940 -0.723840
vn -0.708476 0.692214 -0.137484
vn -0.708476 0.692214 -0.137484
vn -0.708476 0.692214 -0.137484
vn -0.708476 0.692214 -0.137484
vn -0.451690 0.653627 -0.607247
vn -0.451690 0.653627 -0.607247
vn -0.451690 0.653626 -0.607247
vn -0.451690 0.653627 -0.607247
vn 0.146457 0.976735 0.156650
vn 0.146457 0.976735 0.156650
vn 0.146457 0.976735 0.156650
vn 0.146457 0.976735 0.156650
vn 0.487311 0.598417 0.635944
vn 0.487311 0.598417 0.635944
vn 0.487311 0.598417 0.635944
vn 0.487311 0.598417 0.635944
vn 0.609276 0.614516 0.501151
vn 0.609276 0.614516 0.501151
vn 0.609276 0.614516 0.501151
vn 0.609276 0.614516 0.501151
vn 0.309232 0.863917 0.397521
vn 0.309232 0.863917 0.397521
vn 0.309232 0.863917 0.397521
vn 0.309232 0.863917 0.397521
vn 0.571346 0.362280 0.736421
vn 0.571346 0.362280 0.736421
vn 0.571346 0.362280 0.736421
vn 0.571346 0.362280 0.736421
vn 0.733178 0.269311 0.624437
vn 0.733178 0.269311 0.624436
vn 0.733178 0.269311 0.624437
vn 0.733178 0.269311 0.624437
vn 0.411525 0.831941 0.372184
vn 0.411525 0.831941 0.372184
vn 0.411525 0.831941 0.372184
vn 0.411525 0.831941 0.372184
vn 0.000000 1.000000 -0.000000
vn 0.000000 1.000000 -0.000000
vn 0.000000 1.000000 -0.000000
vn 0.000000 1.000000 -0.000000
vn -0.000000 1.000000 0.000000
vn -0.000000 1.000000 0.000000
vn -0.000000 1.000000 0.000000
vn -0.000000 1.000000 0.000000
vn -0.000000 1.000000 0.000000
vn -0.000000 1.000000 0.000000
vn -0.000000 1.000000 0.000000
vn -0.000000 1.000000 0.000000
vn 0.000000 1.000000 0.000000
vn 0.000000 1.000000 0.000000
vn 0.000000 1.000000 0.000000
vn 0.000000 1.000000 0.000000
vn 0.000000 1.000000 0.000000
vn 0.000000 1.000000 0.000000
vn 0.000000 1.000000 0.000000
vn 0.000000 1.000000 0.000000
vn 0.000000 1.000000 0.000000
vn 0.000000 1.000000 0.000000
vn 0.000000 1.000000 0.000000
vn 0.000000 1.000000 0.000000
vn 0.000000 1.000000 0.000000
vn 0.000000 1.000000 0.000000
vn 0.000000 1.000000 0.000000
vn 0.000000 1.000000 0.000000
vn 0.000000 1.000000 0.000000
vn 0.000000 1.000000 0.000000
vn 0.000000 1.000000 0.000000
vn 0.000000 1.000000 0.000000
vn -0.000000 1.000000 0.000000
vn -0.000000 1.000000 0.000000
vn -0.000000 1.000000 0.000000
vn -0.000000 1.000000 0.000000
vn -0.000000 1.000000 -0.000000
vn -0.000000 1.000000 -0.000000
vn -0.000000 1.000000 -0.000000
vn -0.000000 1.000000 -0.000000
vn -0.999997 0.000000 -0.002451
vn -1.000000 0.000000 0.000792
vn -1.000000 0.000000 0.000914
vn -0.999998 0.000000 -0.002198
vn -1.000000 0.000000 0.000646
vn -1.000000 0.000000 0.000646
vn 1.000000 0.000000 0.000000
vn 1.000000 -0.000000 0.000000
vn 1.000000 -0.000000 0.000000
vn 1.000000 0.000000 0.000000
vn 0.000000 0.000000 1.000000
vn 0.000000 0.000000 1.000000
vn 0.000000 0.000000 1.000000
vn 0.000000 0.000000 1.000000
vn 0.000000 0.000000 1.000000
vn 0.000000 0.000000 1.000000
vn 1.000000 -0.000000 0.000000
vn 1.000000 -0.000000 0.000000
vn 1.000000 0.000000 0.000000
vn 1.000000 0.000000 0.000000
vn -0.999995 0.000000 0.003242
vn -0.999995 0.000000 0.003242
vn -0.000001 0.000000 -1.000000
vn -0.000000 0.000000 -1.000000
vn -0.000000 0.000000 -1.000000
vn -0.000001 0.000000 -1.000000
vn 0.000000 0.000000 -1.000000
vn 0.000000 0.000000 -1.000000
vn -0.000000 -1.000000 -0.000000
vn -0.000000 -1.000000 -0.000000
vn -0.000000 -1.000000 -0.000000
vn -0.000000 -1.000000 -0.000000
vn -0.000000 -1.000000 -0.000000
vn -0.000000 -1.000000 -0.000000
vn -0.000000 -1.000000 -0.000000
vn -0.000000 -1.000000 -0.000000
vn -0.999855 0.016981 -0.001392
vn -0.999855 0.016981 -0.001392
vn -0.999855 0.016981 -0.001392
vn -0.999855 0.016981 -0.001392
vn 1.000000 0.000000 0.000000
vn 1.000000 0.000000 0.000000
vn 1.000000 0.000000 0.000000
vn 1.000000 0.000000 0.000000
s off
g Ground2
usemtl lambert2SG
f 3/31/1 1/32/2 2/2/3 8/1/4
f 6/44/5 4/40/6 5/35/7 9/38/8
f 8/1/9 2/2/10 7/3/11 18/4/12
f 11/33/13 10/34/14 1/32/15 3/31/16
f 14/13/17 12/12/18 13/47/19 21/58/20
f 12/12/21 4/40/22 15/46/23 13/47/24
f 16/37/25 9/38/26 10/34/27 11/33/28
f 18/4/29 7/3/30 17/7/31 20/8/32
f 15/46/33 4/40/34 6/44/35 23/50/36
f 19/43/37 6/44/38 9/38/39 16/37/40
f 22/64/41 14/13/42 21/58/43 27/62/44
f 24/39/45 11/33/46 3/31/47 25/36/48
f 25/36/49 3/31/50 8/1/51 26/9/52
f 23/50/53 6/44/54 19/43/55 30/51/56
f 26/9/57 8/1/58 18/4/59 32/10/60
f 28/45/61 16/37/62 11/33/63 24/39/64
f 29/54/65 15/46/66 23/50/67 30/51/68
f 31/53/69 13/47/70 15/46/71 29/54/72
f 33/52/73 19/43/74 16/37/75 28/45/76
f 21/58/77 13/47/78 31/53/79 39/59/80
f 24/39/81 25/36/82 34/42/83 28/45/84
f 35/14/85 32/10/86 18/4/87 20/8/88
f 36/57/89 30/51/90 19/43/91 33/52/92
f 25/36/93 26/9/94 37/41/95 34/42/96
f 32/10/97 35/14/98 49/69/99 38/68/100
f 26/9/101 32/10/102 38/68/103 37/41/104
f 40/49/105 33/52/106 28/45/107 34/42/108
f 41/55/109 29/54/110 30/51/111 36/57/112
f 36/57/113 33/52/114 40/49/115 41/55/116
f 39/59/117 42/61/118 27/62/119 21/58/120
f 34/42/121 37/41/122 43/48/123 40/49/124
f 44/56/125 31/53/126 29/54/127 41/55/128
f 43/48/129 37/41/130 38/68/131 46/65/132
f 45/60/133 39/59/134 31/53/135 44/56/136
f 41/55/137 40/49/138 43/48/139 44/56/140
f 44/56/141 43/48/142 46/65/143 45/60/144
f 47/66/145 46/65/146 38/68/147 49/69/148
f 45/60/149 48/63/150 42/61/151 39/59/152
f 48/63/153 45/60/154 46/65/155 47/66/156
f 10/34/157 9/38/158 5/35/159 1/32/160
f 14/13/161 22/64/162 50/11/163 52/5/164
f 50/11/165 17/7/166 7/3/167 52/5/168
f 4/40/169 12/12/170 51/6/171 5/35/172
f 12/12/173 14/13/174 52/5/175 51/6/176
f 52/5/177 7/3/178 2/2/179 51/6/180
f 1/32/181 5/35/182 51/6/183 2/2/184
f 22/64/185 27/62/186 57/23/187 62/67/188
f 20/8/189 17/7/190 53/16/191 54/15/192
f 35/14/193 20/8/194 54/15/195 55/22/196
f 27/62/197 42/61/198 56/24/199 57/23/200
f 49/69/201 35/14/202 55/22/203 58/70/204
f 47/66/205 49/69/206 58/70/207 59/30/208
f 42/61/209 48/63/210 60/27/211 56/24/212
f 48/63/213 47/66/214 59/30/215 60/27/216
f 17/7/217 50/11/218 61/19/219 53/16/220
f 62/67/221 61/19/222 50/11/223 22/64/224
s 1
f 54/15/225 53/16/226 63/17/227 64/18/228
f 55/22/229 54/15/225 64/18/228 65/21/230
s 2
f 57/23/231 56/24/232 66/25/233 67/26/234
s 3
f 58/70/235 55/22/236 65/77/237 68/78/238
f 59/30/239 58/70/235 68/78/238 69/79/240
s 2
f 56/24/232 60/27/241 70/28/242 66/25/233
f 60/27/241 59/30/243 69/29/244 70/28/242
s 1
f 53/16/226 61/19/245 71/20/246 63/17/227
s 4
f 61/19/247 62/67/248 72/80/249 71/81/250
f 62/67/248 57/23/251 67/82/252 72/80/249
s off
f 69/71/253 68/72/254 72/73/255 67/74/256
f 68/72/257 65/75/258 71/76/259 72/73/260
f 65/21/261 64/18/262 63/17/263 71/20/264
f 67/26/265 66/25/266 70/28/267 69/29/268
