# This file uses centimeters as units for non-parametric coordinates.

mtllib Environment_ground.mtl
g default
v -0.219665 0.011454 -0.018645
v -0.249065 0.024447 -0.012771
v -0.209183 0.011313 0.100984
v -0.011264 0.010738 -0.206224
v -0.125550 0.011697 -0.120842
v 0.003504 0.002634 -0.123095
v -0.259063 0.041794 -0.004656
v -0.235317 0.024101 0.124620
v -0.103698 0.002923 -0.073872
v -0.183937 0.003438 -0.014756
v -0.158042 0.002966 0.067803
v -0.011285 0.024433 -0.237407
v 0.139023 0.024318 -0.199997
v -0.007054 0.041908 -0.248737
v 0.120141 0.011146 -0.173127
v -0.067637 0.001207 0.023080
v -0.267629 0.050370 -0.003396
v -0.242013 0.041565 0.138142
v 0.024684 0.001849 -0.011100
v -0.249695 0.050370 0.143430
v 0.159171 0.041764 -0.197051
v -0.006949 0.050370 -0.255778
v 0.096293 0.003214 -0.126355
v -0.123808 0.003203 0.140571
v -0.148419 0.010919 0.183383
v -0.168955 0.023887 0.215498
v 0.166399 0.050370 -0.200951
v -0.045083 0.003003 0.118400
v 0.173531 0.011697 -0.046475
v 0.117050 0.003061 -0.031812
v 0.202144 0.024589 -0.052674
v -0.175730 0.041570 0.225720
v 0.042973 0.003006 0.088289
v -0.043523 0.012098 0.169438
v -0.178500 0.050370 0.233038
v 0.115498 0.003791 0.058168
v -0.046681 0.025041 0.195849
v -0.049101 0.042295 0.205709
v 0.212616 0.041857 -0.052110
v 0.059830 0.012157 0.134193
v 0.149260 0.011884 0.072426
v 0.221523 0.050370 -0.052572
v 0.074852 0.025199 0.154168
v 0.176417 0.024591 0.081169
v 0.186923 0.041895 0.083056
v 0.083515 0.042375 0.160284
v 0.087505 0.050370 0.166129
v 0.193993 0.050370 0.086712
v -0.047815 0.050370 0.212353
v -0.151342 0.050370 -0.146134
v -0.139822 0.025118 -0.137470
v -0.145492 0.042414 -0.142129
v -0.498224 0.050369 0.004121
v -0.500000 0.050369 0.280000
v -0.499858 0.050369 0.500000
v 0.500000 0.050369 -0.060000
v 0.500000 0.050369 -0.500000
v 0.060000 0.050369 0.500000
v 0.500000 0.050369 0.500000
v 0.500000 0.050369 0.240000
v -0.499858 0.050369 -0.500000
v -0.020000 0.050370 -0.500000
v -0.498224 0.005211 0.004121
v -0.500000 0.005211 0.280000
v -0.499858 -0.050369 0.500000
v 0.500000 -0.010154 -0.060000
v 0.500000 -0.050369 -0.500000
v 0.060000 -0.050370 0.500000
v 0.500000 -0.050370 0.500000
v 0.500000 -0.010154 0.240000
v -0.499858 -0.050369 -0.500000
v -0.020000 -0.050369 -0.500000
vt 0.317841 0.403399
vt 0.310248 0.510119
vt 0.293444 0.508180
vt 0.305163 0.390515
vt 0.382738 0.618465
vt 0.393172 0.607974
vt 0.283745 0.508493
vt 0.296544 0.385464
vt 0.368944 0.332774
vt 0.360700 0.318147
vt 0.376404 0.623755
vt 0.496488 0.680988
vt 0.497997 0.697907
vt 0.356994 0.309495
vt 0.099831 0.280596
vt 0.099831 0.502909
vt 0.074330 0.502909
vt 0.074330 0.280596
vt 0.099831 0.902107
vt 0.036112 0.902107
vt 0.036112 0.096192
vt 0.099831 0.096192
vt 0.905505 0.902107
vt 0.905505 0.541835
vt 0.944222 0.541835
vt 0.973620 0.902107
vt 0.905505 0.299623
vt 0.944222 0.299623
vt 0.973620 0.096192
vt 0.905505 0.096192
vt 0.340505 0.421535
vt 0.335126 0.513118
vt 0.381277 0.445919
vt 0.362920 0.509622
vt 0.406172 0.592373
vt 0.386334 0.357978
vt 0.451383 0.478483
vt 0.423583 0.554661
vt 0.406588 0.389887
vt 0.496239 0.654421
vt 0.465908 0.341397
vt 0.468548 0.364156
vt 0.522362 0.503234
vt 0.506227 0.589720
vt 0.468048 0.404352
vt 0.595703 0.626247
vt 0.611308 0.648083
vt 0.563081 0.372419
vt 0.550022 0.390188
vt 0.577374 0.590656
vt 0.593877 0.518875
vt 0.536420 0.426414
vt 0.662616 0.535847
vt 0.638230 0.530487
vt 0.618647 0.438774
vt 0.641449 0.430972
vt 0.592086 0.449869
vt 0.631317 0.653597
vt 0.678094 0.536345
vt 0.656306 0.425251
vt 0.687641 0.537059
vt 0.638958 0.659142
vt 0.664316 0.420870
vt 0.497612 0.706741
vt 0.573699 0.360717
vt 0.578233 0.353767
vt 0.492407 0.902107
vt 0.465376 0.325846
vt 0.466721 0.317877
vt 0.546924 0.096192
vt 0.990265 0.990385
vt 0.956403 0.990385
vt 0.950247 0.913427
vt 0.990265 0.913427
vt 0.913318 0.990385
vt 0.913318 0.913427
vt 0.099831 0.009825
vt 0.546924 0.009825
vt 0.905505 0.009825
vt 0.492407 0.982278
vt 0.099831 0.982278
vt 0.905505 0.982278
vn 0.404810 0.913675 -0.036430
vn 0.404810 0.913675 -0.036430
vn 0.404810 0.913675 -0.036430
vn 0.404810 0.913675 -0.036430
vn 0.071528 0.991520 0.108502
vn 0.071528 0.991520 0.108502
vn 0.071528 0.991520 0.108502
vn 0.071528 0.991520 0.108502
vn 0.873278 0.477870 -0.095008
vn 0.873278 0.477870 -0.095008
vn 0.873278 0.477870 -0.095008
vn 0.873278 0.477870 -0.095008
vn 0.175707 0.984026 -0.028628
vn 0.175707 0.984026 -0.028628
vn 0.175707 0.984026 -0.028628
vn 0.175707 0.984026 -0.028628
vn -0.249507 0.387286 0.887556
vn -0.249507 0.387286 0.887556
vn -0.249507 0.387286 0.887556
vn -0.249507 0.387286 0.887556
vn -0.098887 0.914933 0.391305
vn -0.098887 0.914933 0.391305
vn -0.098887 0.914933 0.391305
vn -0.098887 0.914933 0.391305
vn 0.017139 0.999833 0.006271
vn 0.017139 0.999833 0.006271
vn 0.017139 0.999833 0.006271
vn 0.017139 0.999833 0.006271
vn 0.711592 0.697383 -0.085404
vn 0.711592 0.697383 -0.085404
vn 0.711592 0.697383 -0.085404
vn 0.711592 0.697383 -0.085404
vn -0.020488 0.992431 0.121085
vn -0.020488 0.992431 0.121085
vn -0.020488 0.992431 0.121085
vn -0.020488 0.992431 0.121085
vn 0.002905 0.999933 0.011176
vn 0.002905 0.999933 0.011176
vn 0.002905 0.999933 0.011176
vn 0.002905 0.999933 0.011176
vn -0.240330 0.594945 0.766996
vn -0.240330 0.594945 0.766996
vn -0.240330 0.594945 0.766996
vn -0.240330 0.594945 0.766996
vn 0.130448 0.988313 -0.078871
vn 0.130448 0.988313 -0.078871
vn 0.130448 0.988313 -0.078871
vn 0.130448 0.988313 -0.078871
vn 0.278337 0.939236 -0.200910
vn 0.278337 0.939236 -0.200910
vn 0.278337 0.939236 -0.200910
vn 0.278337 0.939236 -0.200910
vn -0.008861 0.999941 0.006341
vn -0.008861 0.999941 0.006341
vn -0.008861 0.999941 0.006341
vn -0.008861 0.999941 0.006341
vn 0.654600 0.579152 -0.485883
vn 0.654600 0.579152 -0.485883
vn 0.654600 0.579152 -0.485883
vn 0.654600 0.579152 -0.485883
vn 0.006001 0.999882 -0.014122
vn 0.006001 0.999882 -0.014122
vn 0.006001 0.999882 -0.014122
vn 0.006001 0.999882 -0.014122
vn -0.162819 0.985242 0.052805
vn -0.162819 0.985242 0.052805
vn -0.162819 0.985242 0.052805
vn -0.162819 0.985242 0.052805
vn -0.386026 0.908252 0.161438
vn -0.386025 0.908252 0.161438
vn -0.386026 0.908252 0.161438
vn -0.386026 0.908252 0.161438
vn -0.008355 0.999875 -0.013412
vn -0.008355 0.999875 -0.013412
vn -0.008355 0.999875 -0.013412
vn -0.008355 0.999875 -0.013412
vn -0.731878 0.616113 0.291132
vn -0.731878 0.616114 0.291132
vn -0.731878 0.616114 0.291132
vn -0.731878 0.616114 0.291132
vn -0.041834 0.981637 -0.186116
vn -0.041834 0.981637 -0.186116
vn -0.041834 0.981637 -0.186116
vn -0.041834 0.981637 -0.186116
vn 0.584892 0.672261 -0.453836
vn 0.584892 0.672261 -0.453836
vn 0.584892 0.672261 -0.453836
vn 0.584892 0.672261 -0.453836
vn -0.014783 0.999853 -0.008656
vn -0.014783 0.999853 -0.008656
vn -0.014783 0.999853 -0.008656
vn -0.014783 0.999853 -0.008656
vn -0.072566 0.900781 -0.428168
vn -0.072566 0.900781 -0.428168
vn -0.072566 0.900781 -0.428168
vn -0.072566 0.900781 -0.428168
vn -0.123523 0.626154 -0.769853
vn -0.123523 0.626154 -0.769853
vn -0.123523 0.626154 -0.769853
vn -0.123523 0.626154 -0.769853
vn -0.142751 0.464736 -0.873867
vn -0.142751 0.464736 -0.873867
vn -0.142751 0.464736 -0.873867
vn -0.142751 0.464736 -0.873867
vn -0.059629 0.982992 -0.173696
vn -0.059629 0.982992 -0.173696
vn -0.059629 0.982992 -0.173696
vn -0.059630 0.982992 -0.173696
vn -0.182314 0.982874 -0.026849
vn -0.182314 0.982874 -0.026849
vn -0.182314 0.982874 -0.026849
vn -0.182314 0.982874 -0.026849
vn -0.109534 0.976114 -0.187628
vn -0.109535 0.976114 -0.187628
vn -0.109534 0.976114 -0.187628
vn -0.109535 0.976114 -0.187628
vn -0.672401 0.697170 0.248659
vn -0.672401 0.697170 0.248659
vn -0.672401 0.697170 0.248659
vn -0.672401 0.697169 0.248659
vn -0.155533 0.878251 -0.452201
vn -0.155533 0.878250 -0.452201
vn -0.155533 0.878250 -0.452201
vn -0.155533 0.878251 -0.452201
vn -0.412647 0.907165 -0.082306
vn -0.412647 0.907165 -0.082306
vn -0.412647 0.907165 -0.082306
vn -0.412647 0.907165 -0.082306
vn -0.290627 0.445605 -0.846742
vn -0.290627 0.445605 -0.846742
vn -0.290627 0.445605 -0.846742
vn -0.290627 0.445605 -0.846742
vn -0.838768 0.520328 -0.160400
vn -0.838768 0.520328 -0.160400
vn -0.838768 0.520328 -0.160400
vn -0.838768 0.520328 -0.160400
vn -0.271339 0.879792 -0.390310
vn -0.271339 0.879792 -0.390310
vn -0.271339 0.879792 -0.390310
vn -0.271339 0.879792 -0.390310
vn -0.523914 0.457993 -0.718162
vn -0.523914 0.457993 -0.718162
vn -0.523914 0.457992 -0.718162
vn -0.523914 0.457993 -0.718162
vn -0.247785 0.643940 -0.723839
vn -0.247785 0.643940 -0.723840
vn -0.247785 0.643940 -0.723839
vn -0.247785 0.643940 -0.723839
vn -0.708476 0.692213 -0.137484
vn -0.708476 0.692213 -0.137484
vn -0.708476 0.692213 -0.137484
vn -0.708476 0.692214 -0.137484
vn -0.451690 0.653626 -0.607247
vn -0.451690 0.653626 -0.607247
vn -0.451690 0.653626 -0.607247
vn -0.451689 0.653626 -0.607247
vn 0.146457 0.976735 0.156650
vn 0.146457 0.976735 0.156650
vn 0.146457 0.976735 0.156650
vn 0.146457 0.976735 0.156650
vn 0.487311 0.598417 0.635944
vn 0.487311 0.598417 0.635944
vn 0.487311 0.598417 0.635944
vn 0.487311 0.598417 0.635944
vn 0.609276 0.614516 0.501151
vn 0.609276 0.614516 0.501151
vn 0.609276 0.614516 0.501151
vn 0.609276 0.614516 0.501151
vn 0.309232 0.863917 0.397521
vn 0.309232 0.863917 0.397521
vn 0.309232 0.863917 0.397521
vn 0.309232 0.863917 0.397521
vn 0.571346 0.362280 0.736421
vn 0.571346 0.362280 0.736421
vn 0.571346 0.362280 0.736421
vn 0.571346 0.362280 0.736421
vn 0.733178 0.269311 0.624437
vn 0.733178 0.269311 0.624437
vn 0.733178 0.269311 0.624437
vn 0.733178 0.269311 0.624437
vn 0.411525 0.831941 0.372184
vn 0.411525 0.831941 0.372184
vn 0.411525 0.831941 0.372184
vn 0.411525 0.831941 0.372184
vn 0.000000 1.000000 -0.000000
vn 0.000000 1.000000 -0.000000
vn 0.000000 1.000000 -0.000000
vn 0.000000 1.000000 -0.000000
vn -0.000000 1.000000 -0.000000
vn -0.000000 1.000000 -0.000000
vn -0.000000 1.000000 -0.000000
vn -0.000000 1.000000 -0.000000
vn -0.000000 1.000000 -0.000000
vn -0.000000 1.000000 -0.000000
vn -0.000000 1.000000 -0.000000
vn -0.000000 1.000000 -0.000000
vn 0.000000 1.000000 0.000000
vn 0.000000 1.000000 0.000000
vn 0.000000 1.000000 0.000000
vn 0.000000 1.000000 0.000000
vn 0.000000 1.000000 0.000000
vn 0.000000 1.000000 0.000000
vn 0.000000 1.000000 0.000000
vn 0.000000 1.000000 0.000000
vn 0.000000 1.000000 0.000000
vn 0.000000 1.000000 0.000000
vn 0.000000 1.000000 0.000000
vn 0.000000 1.000000 0.000000
vn 0.000000 1.000000 0.000000
vn 0.000000 1.000000 0.000000
vn 0.000000 1.000000 0.000000
vn 0.000000 1.000000 0.000000
vn 0.000000 1.000000 0.000000
vn 0.000000 1.000000 0.000000
vn 0.000000 1.000000 0.000000
vn 0.000000 1.000000 0.000000
vn -0.000000 1.000000 0.000000
vn -0.000000 1.000000 0.000000
vn -0.000000 1.000000 0.000000
vn -0.000000 1.000000 0.000000
vn -0.000000 1.000000 -0.000000
vn -0.000000 1.000000 -0.000000
vn -0.000000 1.000000 -0.000000
vn -0.000000 1.000000 -0.000000
vn -0.999997 0.000000 -0.002451
vn -1.000000 0.000000 0.000792
vn -1.000000 0.000000 0.000914
vn -0.999997 0.000000 -0.002198
vn -1.000000 0.000000 0.000646
vn -1.000000 0.000000 0.000646
vn 1.000000 0.000000 0.000000
vn 1.000000 -0.000000 0.000000
vn 1.000000 -0.000000 0.000000
vn 1.000000 0.000000 0.000000
vn 0.000000 0.000000 1.000000
vn 0.000000 0.000000 1.000000
vn 0.000000 0.000000 1.000000
vn 0.000000 0.000000 1.000000
vn -0.000000 0.000000 1.000000
vn -0.000000 0.000000 1.000000
vn 1.000000 -0.000000 0.000000
vn 1.000000 -0.000000 0.000000
vn 1.000000 0.000000 0.000000
vn 1.000000 0.000000 0.000000
vn -0.999995 0.000000 0.003242
vn -0.999995 0.000000 0.003242
vn -0.000001 0.000000 -1.000000
vn -0.000000 0.000000 -1.000000
vn -0.000000 0.000000 -1.000000
vn -0.000001 0.000000 -1.000000
vn 0.000000 0.000000 -1.000000
vn 0.000000 0.000000 -1.000000
vn -0.000000 -1.000000 -0.000000
vn -0.000000 -1.000000 -0.000000
vn -0.000000 -1.000000 -0.000000
vn -0.000000 -1.000000 -0.000000
vn -0.000000 -1.000000 -0.000000
vn -0.000000 -1.000000 -0.000000
vn -0.000000 -1.000000 -0.000000
vn -0.000000 -1.000000 -0.000000
vn -0.999855 0.016981 -0.001392
vn -0.999855 0.016981 -0.001392
vn -0.999855 0.016981 -0.001392
vn -0.999855 0.016981 -0.001392
vn 1.000000 0.000000 0.000000
vn 1.000000 0.000000 0.000000
vn 1.000000 0.000000 0.000000
vn 1.000000 0.000000 0.000000
s off
g Ground
usemtl lambert2SG
f 3/31/1 1/32/2 2/2/3 8/1/4
f 6/44/5 4/40/6 5/35/7 9/38/8
f 8/1/9 2/2/10 7/3/11 18/4/12
f 11/33/13 10/34/14 1/32/15 3/31/16
f 14/13/17 12/12/18 13/47/19 21/58/20
f 12/12/21 4/40/22 15/46/23 13/47/24
f 16/37/25 9/38/26 10/34/27 11/33/28
f 18/4/29 7/3/30 17/7/31 20/8/32
f 15/46/33 4/40/34 6/44/35 23/50/36
f 19/43/37 6/44/38 9/38/39 16/37/40
f 22/64/41 14/13/42 21/58/43 27/62/44
f 24/39/45 11/33/46 3/31/47 25/36/48
f 25/36/49 3/31/50 8/1/51 26/9/52
f 23/50/53 6/44/54 19/43/55 30/51/56
f 26/9/57 8/1/58 18/4/59 32/10/60
f 28/45/61 16/37/62 11/33/63 24/39/64
f 29/54/65 15/46/66 23/50/67 30/51/68
f 31/53/69 13/47/70 15/46/71 29/54/72
f 33/52/73 19/43/74 16/37/75 28/45/76
f 21/58/77 13/47/78 31/53/79 39/59/80
f 24/39/81 25/36/82 34/42/83 28/45/84
f 35/14/85 32/10/86 18/4/87 20/8/88
f 36/57/89 30/51/90 19/43/91 33/52/92
f 25/36/93 26/9/94 37/41/95 34/42/96
f 32/10/97 35/14/98 49/69/99 38/68/100
f 26/9/101 32/10/102 38/68/103 37/41/104
f 40/49/105 33/52/106 28/45/107 34/42/108
f 41/55/109 29/54/110 30/51/111 36/57/112
f 36/57/113 33/52/114 40/49/115 41/55/116
f 39/59/117 42/61/118 27/62/119 21/58/120
f 34/42/121 37/41/122 43/48/123 40/49/124
f 44/56/125 31/53/126 29/54/127 41/55/128
f 43/48/129 37/41/130 38/68/131 46/65/132
f 45/60/133 39/59/134 31/53/135 44/56/136
f 41/55/137 40/49/138 43/48/139 44/56/140
f 44/56/141 43/48/142 46/65/143 45/60/144
f 47/66/145 46/65/146 38/68/147 49/69/148
f 45/60/149 48/63/150 42/61/151 39/59/152
f 48/63/153 45/60/154 46/65/155 47/66/156
f 10/34/157 9/38/158 5/35/159 1/32/160
f 14/13/161 22/64/162 50/11/163 52/5/164
f 50/11/165 17/7/166 7/3/167 52/5/168
f 4/40/169 12/12/170 51/6/171 5/35/172
f 12/12/173 14/13/174 52/5/175 51/6/176
f 52/5/177 7/3/178 2/2/179 51/6/180
f 1/32/181 5/35/182 51/6/183 2/2/184
f 22/64/185 27/62/186 57/23/187 62/67/188
f 20/8/189 17/7/190 53/16/191 54/15/192
f 35/14/193 20/8/194 54/15/195 55/22/196
f 27/62/197 42/61/198 56/24/199 57/23/200
f 49/69/201 35/14/202 55/22/203 58/70/204
f 47/66/205 49/69/206 58/70/207 59/30/208
f 42/61/209 48/63/210 60/27/211 56/24/212
f 48/63/213 47/66/214 59/30/215 60/27/216
f 17/7/217 50/11/218 61/19/219 53/16/220
f 62/67/221 61/19/222 50/11/223 22/64/224
s 1
f 54/15/225 53/16/226 63/17/227 64/18/228
f 55/22/229 54/15/225 64/18/228 65/21/230
s 2
f 57/23/231 56/24/232 66/25/233 67/26/234
s 3
f 58/70/235 55/22/236 65/77/237 68/78/238
f 59/30/239 58/70/235 68/78/238 69/79/240
s 2
f 56/24/232 60/27/241 70/28/242 66/25/233
f 60/27/241 59/30/243 69/29/244 70/28/242
s 1
f 53/16/226 61/19/245 71/20/246 63/17/227
s 4
f 61/19/247 62/67/248 72/80/249 71/81/250
f 62/67/248 57/23/251 67/82/252 72/80/249
s off
f 69/71/253 68/72/254 72/73/255 67/74/256
f 68/72/257 65/75/258 71/76/259 72/73/260
f 65/21/261 64/18/262 63/17/263 71/20/264
f 67/26/265 66/25/266 70/28/267 69/29/268
g default
v -0.499858 0.050369 -0.185884
v -0.151342 0.050369 -0.146135
v -0.499858 0.063600 -0.185884
v -0.151342 0.061410 -0.146135
v -0.499858 0.063600 -0.500000
v -0.153479 0.061409 -0.500000
v -0.499858 0.050369 -0.500000
v -0.153479 0.050369 -0.500000
v -0.037062 0.050369 -0.421884
v -0.006950 0.050369 -0.255778
v -0.037062 0.061409 -0.421884
v -0.006950 0.061410 -0.255778
v -0.496680 0.082445 -0.181949
v -0.147725 0.102952 -0.150799
v -0.153478 0.076914 -0.500000
v -0.499858 0.072719 -0.500000
v 0.014331 0.050370 -0.334020
v 0.014331 0.061410 -0.334019
v -0.102963 0.061410 -0.309551
v -0.104107 0.086758 -0.313674
v -0.500906 0.076396 -0.376856
v -0.493992 0.051349 -0.140324
v -0.197098 0.051349 -0.106460
v -0.197098 0.060754 -0.106460
v -0.493992 0.062620 -0.140324
v -0.123846 0.061409 -0.448270
v -0.126195 0.080851 -0.449889
v -0.502384 0.074280 -0.445014
v -0.020834 0.061619 -0.500000
v -0.019165 0.050579 -0.500000
vt 0.982309 0.531811
vt 0.978509 0.669640
vt 0.961331 0.664780
vt 0.965441 0.537486
vt 0.864384 0.806965
vt 0.847358 0.799724
vt 0.805544 0.276381
vt 0.821433 0.267318
vt 0.832326 0.937371
vt 0.814738 0.932153
vt 0.758428 0.188311
vt 0.772175 0.181169
vt 0.112941 0.463873
vt 0.170666 0.144065
vt 0.228889 0.121838
vt 0.224321 0.153733
vt 0.010756 0.647891
vt 0.076128 0.571028
vt 0.254138 0.046267
vt 0.269806 0.056261
vt 0.033765 0.654563
vt 0.049829 0.659309
vt 0.792571 0.582486
vt 0.750194 0.580211
vt 0.751918 0.356075
vt 0.688843 0.794047
vt 0.661884 0.776106
vt 0.597595 0.860224
vt 0.595375 0.835826
vt 0.275603 0.038597
vt 0.763222 0.173611
vt 0.045619 0.673948
vt 0.591842 0.877430
vt 0.039543 0.694882
vt 0.810534 0.949977
vt 0.210669 0.109953
vt 0.191750 0.150693
vn -0.113327 0.000000 0.993558
vn -0.113327 0.000000 0.993558
vn -0.113327 0.000000 0.993558
vn -0.113327 0.000000 0.993558
vn -0.032979 0.997299 -0.065633
vn -0.032979 0.997299 -0.065633
vn -0.028405 0.998015 -0.056204
vn -0.027135 0.998194 -0.053586
vn -0.000000 0.000000 -1.000000
vn -0.000000 0.000000 -1.000000
vn -0.000000 0.000000 -1.000000
vn -0.000000 0.000000 -1.000000
vn 0.964943 -0.000004 0.262459
vn 0.964943 -0.000004 0.262459
vn 0.964943 -0.000004 0.262459
vn 0.964943 -0.000004 0.262459
vn -0.998498 -0.054598 0.004461
vn -0.996970 0.077011 0.010985
vn -0.995200 0.097132 0.011971
vn -0.995200 0.097132 0.011971
vn -0.000002 -0.000000 -1.000000
vn -0.000002 -0.000000 -1.000000
vn -0.000002 -0.000000 -1.000000
vn -0.000002 -0.000000 -1.000000
vn -0.000000 1.000000 -0.000001
vn -0.000000 1.000000 -0.000001
vn -0.000000 1.000000 -0.000001
vn -0.000000 1.000000 -0.000001
vn 0.604752 0.000017 0.796414
vn 0.604752 0.000017 0.796414
vn 0.604752 0.000017 0.796414
vn 0.604752 0.000017 0.796414
vn -0.101713 0.023453 0.994537
vn -0.101713 0.023453 0.994537
vn -0.101713 0.023453 0.994537
vn -0.101713 0.023453 0.994537
vn 0.962477 0.000052 0.271363
vn 0.962477 0.000052 0.271363
vn 0.962477 0.000052 0.271363
vn 0.962477 0.000052 0.271363
vn -0.000000 0.000006 -1.000000
vn -0.000000 0.000006 -1.000000
vn -0.000000 0.000006 -1.000000
vn -0.000000 0.000006 -1.000000
vn 0.863183 0.000019 -0.504892
vn 0.863183 0.000019 -0.504892
vn 0.863183 0.000019 -0.504892
vn 0.863183 0.000019 -0.504892
vn -0.001163 0.999998 0.001734
vn -0.001163 0.999998 0.001734
vn -0.001163 0.999998 0.001734
vn -0.001163 0.999998 0.001734
vn 0.986213 0.056972 -0.155364
vn 0.986213 0.056972 -0.155364
vn 0.986213 0.056972 -0.155364
vn 0.986213 0.056972 -0.155364
vn -0.018183 0.999044 -0.039752
vn -0.017852 0.999010 -0.040746
vn -0.002489 -0.999759 0.021826
vn -0.002489 -0.999759 0.021826
vn -0.002489 -0.999759 0.021826
vn -0.002489 -0.999759 0.021826
vn 0.655120 0.000000 0.755525
vn 0.655120 0.000000 0.755525
vn 0.655120 0.000000 0.755525
vn 0.655120 0.000000 0.755525
vn 0.003889 0.999772 0.020999
vn 0.003889 0.999772 0.020999
vn 0.003889 0.999772 0.020999
vn 0.003889 0.999772 0.020999
vn -0.991812 0.000000 0.127704
vn -0.991812 0.000000 0.127704
vn -0.991812 0.000000 0.127704
vn -0.991812 0.000000 0.127704
vn 0.871769 0.035937 -0.488597
vn 0.871769 0.035937 -0.488597
vn 0.871769 0.035937 -0.488597
vn 0.871769 0.035937 -0.488597
vn -0.015209 0.998699 -0.048674
vn -0.015209 0.998699 -0.048674
vn 0.000001 1.000000 -0.000003
vn 0.000001 1.000000 -0.000003
vn 0.000001 1.000000 -0.000003
vn 0.000001 1.000000 -0.000003
vn 0.974271 0.073662 0.213002
vn 0.974271 0.073662 0.213002
vn 0.974271 0.073662 0.213002
vn 0.974271 0.073662 0.213002
vn -0.998979 -0.044264 -0.008989
vn -0.998253 -0.058998 0.003327
vn -0.998947 0.000000 -0.045885
vn -0.998947 0.000000 -0.045885
s off
g Hill
usemtl lambert4SG
f 94/112/269 95/113/270 96/93/271 97/102/272
s 1
f 85/98/273 86/107/274 92/106/275 93/95/276
s off
f 77/114/277 78/110/278 80/115/279 79/116/280
f 82/83/281 89/84/282 90/85/283 84/86/284
s 2
f 93/95/285 73/96/286 75/119/287 85/98/288
s off
f 80/115/289 78/110/290 101/92/291 102/117/292
f 91/105/293 76/89/294 84/86/295 90/85/296
f 76/89/297 74/90/298 82/83/299 84/86/300
f 75/97/301 76/89/302 86/107/303 85/98/304
f 76/89/305 91/105/306 92/106/307 86/107/308
f 78/110/309 77/114/310 88/104/311 87/111/312
f 89/84/313 81/87/314 83/88/315 90/85/316
f 78/110/317 98/108/318 83/88/319 101/92/320
f 92/106/321 91/105/322 98/108/323 99/109/324
s 1
f 93/95/276 92/106/275 99/109/325 100/100/326
s off
f 73//327 74//328 95//329 94//330
f 74/90/331 76/89/332 96/93/333 95/94/334
f 76/89/335 75/97/336 97/102/337 96/93/338
f 75/97/339 73/118/340 94/101/341 97/102/342
f 99/109/343 98/108/344 78/110/345 87/111/346
s 1
f 100/100/326 99/109/325 87/111/347 88/104/348
s off
f 83/88/349 98/108/350 91/105/351 90/85/352
f 102/91/353 101/92/354 83/88/355 81/87/356
s 2
f 79/99/357 73/96/286 93/95/285 100/100/358
f 77/103/359 79/99/357 100/100/358 88/104/360
